<?xml version="1.0" encoding="UTF-8" standalone="no"?>
<!-- Created with Inkscape (http://www.inkscape.org/) -->

<svg
   xmlns:osb="http://www.openswatchbook.org/uri/2009/osb"
   xmlns:dc="http://purl.org/dc/elements/1.1/"
   xmlns:cc="http://creativecommons.org/ns#"
   xmlns:rdf="http://www.w3.org/1999/02/22-rdf-syntax-ns#"
   xmlns:svg="http://www.w3.org/2000/svg"
   xmlns="http://www.w3.org/2000/svg"
   xmlns:sodipodi="http://sodipodi.sourceforge.net/DTD/sodipodi-0.dtd"
   xmlns:inkscape="http://www.inkscape.org/namespaces/inkscape"
   width="588"
   height="518"
   viewBox="0 0 155.575 137.05417"
   version="1.1"
   id="svg8"
   inkscape:export-filename="/home/leonard/Bureau/ProjetWebMulti/assets/img/skins/taupe/taupe-normal.png"
   inkscape:export-xdpi="96"
   inkscape:export-ydpi="96"
   inkscape:version="0.92.4 (f8dce91, 2019-08-02)"
   sodipodi:docname="taupe.svg">
  <defs
     id="defs2">
    <linearGradient
       id="linearGradient4799"
       osb:paint="solid">
      <stop
         style="stop-color:#000000;stop-opacity:1;"
         offset="0"
         id="stop4797" />
    </linearGradient>
    <linearGradient
       id="linearGradient4612"
       osb:paint="solid">
      <stop
         style="stop-color:#000000;stop-opacity:1;"
         offset="0"
         id="stop4610" />
    </linearGradient>
  </defs>
  <sodipodi:namedview
     id="base"
     pagecolor="#ffffff"
     bordercolor="#666666"
     borderopacity="1.0"
     inkscape:pageopacity="0.0"
     inkscape:pageshadow="2"
     inkscape:zoom="0.98994949"
     inkscape:cx="155.49491"
     inkscape:cy="239.5801"
     inkscape:document-units="mm"
     inkscape:current-layer="layer1"
     showgrid="false"
     units="px"
     inkscape:window-width="1600"
     inkscape:window-height="780"
     inkscape:window-x="0"
     inkscape:window-y="27"
     inkscape:window-maximized="1" />
  <metadata
     id="metadata5">
    <rdf:RDF>
      <cc:Work
         rdf:about="">
        <dc:format>image/svg+xml</dc:format>
        <dc:type
           rdf:resource="http://purl.org/dc/dcmitype/StillImage" />
        <dc:title></dc:title>
      </cc:Work>
    </rdf:RDF>
  </metadata>
  <g
     inkscape:label="Calque 1"
     inkscape:groupmode="layer"
     id="layer1"
     transform="translate(0,-159.94582)">
    <path
       style="opacity:1;fill:#ff8080;stroke:#000000;stroke-width:3.81789947;stroke-miterlimit:4;stroke-dasharray:none;stroke-opacity:1"
       d=""
       id="path4747"
       inkscape:connector-curvature="0"
       transform="matrix(0.26458333,0,0,0.26458333,0,159.94582)" />
    <path
       style="opacity:1;fill:#93ac93;stroke:#000000;stroke-width:3.81789947;stroke-miterlimit:4;stroke-dasharray:none;stroke-opacity:1"
       d=""
       id="path4777"
       inkscape:connector-curvature="0"
       transform="matrix(0.26458333,0,0,0.26458333,0,159.94582)" />
    <g
       id="g6319">
      <path
         inkscape:connector-curvature="0"
         id="path10"
         d="m 1.1259004,218.92099 c 6.529267,-77.48735 56.7543766,0 56.7543766,0 0,0 -39.677833,33.20886 -56.7543766,0 z"
         style="fill:none;stroke:#000000;stroke-width:1;stroke-linecap:butt;stroke-linejoin:miter;stroke-miterlimit:4;stroke-dasharray:none;stroke-opacity:1" />
      <path
         inkscape:connector-curvature="0"
         id="path4522"
         d="m 45.70309,203.72292 c 32.072341,-43.03039 55.05752,-43.03039 55.05752,-43.03039 0,0 12.2944,-4.81085 33.40869,15.23436"
         style="fill:none;stroke:#000000;stroke-width:1;stroke-linecap:butt;stroke-linejoin:miter;stroke-opacity:1;stroke-miterlimit:4;stroke-dasharray:none" />
      <path
         sodipodi:nodetypes="cc"
         inkscape:connector-curvature="0"
         id="path4524"
         d="M 37.952272,230.71714 C 63.877417,244.08062 130.6948,207.73196 130.6948,207.73196"
         style="fill:none;stroke:#000000;stroke-width:1;stroke-linecap:butt;stroke-linejoin:miter;stroke-miterlimit:4;stroke-dasharray:none;stroke-opacity:1" />
      <path
         inkscape:connector-curvature="0"
         id="path4526"
         d="m 55.057521,233.38984 c 77.508159,14.16528 97.018839,-25.39061 97.018839,-25.39061"
         style="fill:none;stroke:#000000;stroke-width:1;stroke-linecap:butt;stroke-linejoin:miter;stroke-opacity:1;stroke-miterlimit:4;stroke-dasharray:none" />
      <path
         inkscape:connector-curvature="0"
         id="path4528"
         d="m 134.1693,175.92689 c 0,0 9.1525,12.82894 17.90706,32.07234"
         style="fill:none;stroke:#000000;stroke-width:1;stroke-linecap:butt;stroke-linejoin:miter;stroke-opacity:1;stroke-miterlimit:4;stroke-dasharray:none" />
      <path
         inkscape:connector-curvature="0"
         id="path4530"
         d="m 127.48756,197.04118 c 2.40543,18.97614 12.2944,13.89802 12.2944,13.89802"
         style="fill:none;stroke:#000000;stroke-width:1;stroke-linecap:butt;stroke-linejoin:miter;stroke-opacity:1;stroke-miterlimit:4;stroke-dasharray:none" />
      <ellipse
         ry="11.22532"
         rx="11.626225"
         cy="187.95403"
         cx="108.91234"
         id="path4532"
         style="fill:none;stroke-width:1;stroke-miterlimit:4;stroke-dasharray:none;opacity:1;stroke:#000000;stroke-opacity:1" />
      <ellipse
         ry="8.5366879"
         rx="8.9375935"
         cy="186.75131"
         cx="81.918114"
         id="path4532-3"
         style="opacity:1;fill:none;stroke:#000000;stroke-width:1;stroke-miterlimit:4;stroke-dasharray:none;stroke-opacity:1" />
      <ellipse
         ry="6.4144688"
         rx="3.8754082"
         cy="218.42274"
         cx="24.722431"
         id="path4649"
         style="opacity:1;fill:none;stroke:#000000;stroke-width:1;stroke-miterlimit:4;stroke-dasharray:none;stroke-opacity:1" />
      <ellipse
         ry="4.6822557"
         rx="2.8113689"
         cy="219.09091"
         cx="10.156243"
         id="path4649-6"
         style="opacity:1;fill:none;stroke:#000000;stroke-width:1;stroke-miterlimit:4;stroke-dasharray:none;stroke-opacity:1" />
      <path
         inkscape:connector-curvature="0"
         id="path4668"
         d="m 98.622456,200.51569 c 18.708864,8.01808 22.183374,-1.33635 22.183374,-1.33635"
         style="fill:none;stroke:#000000;stroke-width:1;stroke-linecap:butt;stroke-linejoin:miter;stroke-opacity:1;stroke-miterlimit:4;stroke-dasharray:none" />
      <path
         inkscape:connector-curvature="0"
         id="path4670"
         d="m 97.820645,223.76813 c 0,0 25.123335,12.2944 24.321525,1.33635 -0.8018,-10.95805 -10.69078,-7.21627 -10.69078,-7.21627"
         style="fill:none;stroke:#000000;stroke-width:1;stroke-linecap:butt;stroke-linejoin:miter;stroke-opacity:1;stroke-miterlimit:4;stroke-dasharray:none" />
      <path
         inkscape:connector-curvature="0"
         id="path4680"
         d="m 105.57146,220.02636 c 16.03617,3.74177 16.03617,7.48355 16.03617,7.48355"
         style="fill:none;stroke:#000000;stroke-width:1;stroke-linecap:butt;stroke-linejoin:miter;stroke-opacity:1;stroke-miterlimit:4;stroke-dasharray:none" />
      <path
         inkscape:connector-curvature="0"
         id="path4682"
         d="m 66.550111,234.72619 c 0,0 -30.201455,40.35769 -24.588796,51.04847"
         style="fill:none;stroke:#000000;stroke-width:1;stroke-linecap:butt;stroke-linejoin:miter;stroke-opacity:1;stroke-miterlimit:4;stroke-dasharray:none" />
      <path
         inkscape:connector-curvature="0"
         id="path4690"
         d="m 126.96625,228.06303 c 0,0 34.12256,32.01256 27.24514,56.91124"
         style="fill:none;stroke:#000000;stroke-width:1;stroke-linecap:butt;stroke-linejoin:miter;stroke-opacity:1;stroke-miterlimit:4;stroke-dasharray:none" />
      <path
         inkscape:connector-curvature="0"
         id="path4692"
         d="m 41.961315,285.77466 c 0,0 60.931195,24.32436 112.250075,-0.80039"
         style="fill:none;stroke:#000000;stroke-width:1;stroke-linecap:butt;stroke-linejoin:miter;stroke-opacity:1;stroke-miterlimit:4;stroke-dasharray:none" />
      <path
         inkscape:connector-curvature="0"
         id="path4696"
         d="m 111.71866,259.58225 c 0,0 72.69731,48.64306 20.04521,-12.02713"
         style="fill:none;stroke:#000000;stroke-width:1;stroke-linecap:butt;stroke-linejoin:miter;stroke-opacity:1;stroke-miterlimit:4;stroke-dasharray:none" />
      <path
         inkscape:connector-curvature="0"
         id="path4698"
         d="m 61.471992,240.07158 c 0,0 -44.634012,42.76312 -16.036174,28.0633"
         style="fill:none;stroke:#000000;stroke-width:1;stroke-linecap:butt;stroke-linejoin:miter;stroke-opacity:1;stroke-miterlimit:4;stroke-dasharray:none" />
      <path
         inkscape:connector-curvature="0"
         id="path4700"
         d="m 67.567681,293.22405 c 0,0 -92.000995,3.81039 20.518208,3.81039"
         style="fill:none;stroke:#000000;stroke-width:1;stroke-linecap:butt;stroke-linejoin:miter;stroke-miterlimit:4;stroke-dasharray:none;stroke-opacity:1" />
      <path
         inkscape:connector-curvature="0"
         id="path4700-7"
         d="m 133.31199,292.77366 c 0,0 56.2454,3.64097 -12.54394,3.64097"
         style="fill:none;stroke:#000000;stroke-width:1;stroke-linecap:butt;stroke-linejoin:miter;stroke-miterlimit:4;stroke-dasharray:none;stroke-opacity:1" />
      <path
         inkscape:connector-curvature="0"
         id="path4719"
         d="m 88.085889,297.03444 c 32.682161,-0.61981 32.682161,-0.61981 32.682161,-0.61981"
         style="fill:none;stroke:#000000;stroke-width:1;stroke-linecap:butt;stroke-linejoin:miter;stroke-opacity:1;stroke-miterlimit:4;stroke-dasharray:none" />
      <path
         transform="matrix(0.26458333,0,0,0.26458333,0,159.94582)"
         inkscape:connector-curvature="0"
         id="path4737"
         d="m 435.90024,260.79238 c -7.52941,-0.89541 -19.16922,-3.82772 -30.30458,-7.63435 -15.40348,-5.2657 -33.61621,-13.05977 -32.61797,-13.95875 0.43899,-0.39534 6.10195,-2.86938 12.58435,-5.49786 l 11.78617,-4.77906 13.35892,3.64564 c 14.17398,3.86808 27.99598,9.02476 35.63685,13.29532 5.87067,3.28118 11.07568,8.10628 10.52539,9.75715 -1.19112,3.57336 -11.99787,6.23878 -20.96913,5.17191 z"
         style="opacity:1;fill:#ff2a2a;stroke:#000000;stroke-width:3.81789947;stroke-miterlimit:4;stroke-dasharray:none;stroke-opacity:1" />
      <path
         sodipodi:nodetypes="sscsscsscs"
         transform="matrix(0.26458333,0,0,0.26458333,0,159.94582)"
         inkscape:connector-curvature="0"
         id="path4739"
         d="m 455.389,246.09115 c -3.86841,-4.09719 -21.2266,-12.10148 -35.35534,-16.21185 -6.9448,-2.0204 -12.59447,-3.19085 -13.42784,-3.47403 -0.90393,-0.30714 1.49702,-1.90127 5.95118,-3.95132 5.39076,-2.48113 7.81989,-3.1431 8.73793,-2.38119 0.88746,0.73653 2.69328,0.69728 5.9784,-0.12992 10.65205,-2.68222 21.84339,1.01314 26.81636,8.8547 3.06128,4.82714 3.33301,12.15375 3.96719,16.66105 l 0.57179,4.06382 z"
         style="opacity:1;fill:#916f6f;stroke:#000000;stroke-width:3.81789947;stroke-miterlimit:4;stroke-dasharray:none;stroke-opacity:1" />
      <path
         transform="matrix(0.26458333,0,0,0.26458333,0,159.94582)"
         inkscape:connector-curvature="0"
         id="path4745"
         d="M 79.316392,275.98555 C 53.699798,272.87343 33.841286,261.4387 18.650343,241.05345 15.464169,236.77781 11.431687,230.78785 9.6892699,227.74243 l -3.1680302,-5.53714 1.6130304,-13.9631 C 16.877274,132.55893 37.36881,95.636584 70.730096,95.454915 105.10535,95.267724 153.43328,135.77041 205.96375,208.79154 l 9.71339,13.50229 -6.30854,4.75289 c -22.46313,16.92387 -49.75509,31.85808 -73.60128,40.27473 -17.90624,6.32012 -43.460829,10.24224 -56.450928,8.6641 z m 21.256468,-30.94629 c 7.04876,-4.7504 11.36438,-18.88532 9.24519,-30.28069 -3.76714,-20.25679 -19.180691,-26.90119 -28.460412,-12.26859 -10.415002,16.42276 -2.747859,44.82212 12.10089,44.82212 2.207735,0 5.12452,-0.93183 7.114332,-2.27284 z m -56.116052,-3.96121 c 8.866826,-6.97465 8.866826,-28.03441 0,-35.00906 -8.816769,-6.93527 -18.634131,2.28697 -18.634131,17.50453 0,11.57569 5.188295,19.69797 12.582537,19.69797 1.819368,0 4.496825,-0.97046 6.051594,-2.19344 z"
         style="opacity:1;fill:#ff8080;stroke:#000000;stroke-width:3.81789947;stroke-miterlimit:4;stroke-dasharray:none;stroke-opacity:1" />
      <path
         transform="matrix(0.26458333,0,0,0.26458333,0,159.94582)"
         inkscape:connector-curvature="0"
         id="path4749"
         d="m 35.78253,237.93607 c -7.392523,-5.64143 -7.054298,-24.91203 0.508276,-28.9594 3.170692,-1.6969 5.971139,0.11239 8.354425,5.39758 3.543552,7.85819 1.591639,19.41004 -3.933632,23.28009 -2.663428,1.86553 -2.840396,1.87565 -4.929069,0.28173 z"
         style="opacity:1;fill:#ffd5d5;stroke:#000000;stroke-width:3.81789947;stroke-miterlimit:4;stroke-dasharray:none;stroke-opacity:1" />
      <path
         transform="matrix(0.26458333,0,0,0.26458333,0,159.94582)"
         inkscape:connector-curvature="0"
         id="path4751"
         d="m 90.45839,241.97198 c -11.307603,-5.68901 -12.200404,-32.56531 -1.364914,-41.08851 5.125559,-4.03176 11.004954,-0.47222 14.456254,8.75219 3.63676,9.72013 1.8523,23.49434 -3.829276,29.55795 -3.380206,3.60749 -6.032619,4.40314 -9.262064,2.77837 z"
         style="opacity:1;fill:#ffd5d5;stroke:#000000;stroke-width:3.81789947;stroke-miterlimit:4;stroke-dasharray:none;stroke-opacity:1" />
      <path
         transform="matrix(0.26458333,0,0,0.26458333,0,159.94582)"
         inkscape:connector-curvature="0"
         id="path4753"
         d="m 450.54745,240.2664 c -6.4772,-3.74759 -18.79931,-8.70474 -30.11375,-12.11468 -8.65675,-2.60897 -8.82416,-2.71725 -6.11179,-3.95309 2.94879,-1.34356 13.87292,-2.54464 21.71999,-2.38807 8.68581,0.17332 15.22178,5.03944 18.58014,13.83317 2.71155,7.1001 1.86577,8.05965 -4.07459,4.62267 z"
         style="opacity:1;fill:#ff0000;stroke:#000000;stroke-width:3.81789947;stroke-miterlimit:4;stroke-dasharray:none;stroke-opacity:1" />
      <path
         sodipodi:nodetypes="ccsscscsscccsccscscsccsccssscscsscssssssccsccsscccsscsscccsssssssssscsssss"
         transform="matrix(0.26458333,0,0,0.26458333,0,159.94582)"
         inkscape:connector-curvature="0"
         id="path4765"
         d="m 296.49919,286.08516 c -21.67474,-1.49602 -69.71608,-6.76935 -68.92295,-7.56247 0.15066,-0.15067 10.46921,-0.73277 17.37426,-1.91089 33.41506,-5.70116 77.20744,-18.25505 117.49824,-33.68302 5.79232,-2.21797 6.8107,-2.37212 6.56599,-0.99383 -0.21436,1.20732 2.69955,2.91701 11.21136,6.57812 37.18652,15.99468 65.55845,21.06326 76.68558,13.69968 6.13268,-4.05843 7.98886,-9.77991 6.49591,-20.02304 -2.44997,-16.80925 -10.60809,-25.72611 -25.34842,-27.70595 l -5.41724,-0.72761 30.16598,-14.88807 30.16596,-14.88806 4.54569,4.55537 c 6.12435,6.1374 11.89216,8.57551 20.17947,8.53003 3.62427,-0.0199 7.85793,-0.537 9.40814,-1.14915 2.4629,-0.97255 2.67619,-1.37903 1.69029,-3.2212 -0.7582,-1.41671 -1.68269,-1.88611 -2.81856,-1.43111 -0.92967,0.37241 -4.19043,0.90597 -7.24614,1.18569 -4.75548,0.43532 -6.35562,0.0871 -11.10761,-2.4172 -10.37396,-5.46711 -17.40043,-18.26218 -21.46299,-39.08373 -2.09544,-10.73958 -2.44292,-11.63437 -4.29997,-11.07277 -1.11117,0.33602 -2.14363,0.7157 -2.29436,0.84372 -0.88344,0.75027 4.17142,21.79834 7.12078,29.65043 l 3.49696,9.30995 -6.27645,3.50998 c -9.79368,5.47694 -53.70133,30.70632 -77.58956,41.30811 -47.91393,21.26457 -86.17657,29.52738 -124.97265,39.37637 -44.82513,11.37955 -78.5794,14.72523 -107.07617,10.61324 -7.1168,-1.02693 -25.70542,-5.54974 -25.61912,-6.52214 0.0292,-0.32911 8.16267,-4.20754 16.32832,-8.18223 18.91766,-9.20829 35.10416,-19.47772 55.62799,-35.29283 1.18956,-0.91665 0.69408,-2.19826 -2.92903,-7.57615 -6.09299,-9.04399 -26.04455,-35.72996 -32.49652,-43.46531 -2.95623,-3.54426 -5.98637,-7.22979 -6.73366,-8.19007 -1.201,-1.54331 -0.37919,-2.9974 7.08065,-12.52837 C 234.27478,90.451741 282.25621,46.831817 328.34063,22.900921 349.3979,11.966218 361.20634,7.9763048 381.6259,4.8965488 c 15.06641,-2.2723741 24.08,-1.6759972 38.74532,2.5635517 30.35931,8.7764795 75.25102,40.2211765 91.08553,63.8014745 17.30552,25.770865 41.67187,69.461925 56.35436,101.048455 l 4.34418,9.34566 -5.22998,7.82693 c -6.82836,10.21902 -25.71725,29.61158 -37.97271,38.98527 -15.13286,11.57451 -40.7526,26.76449 -46.10381,27.33502 -1.36175,0.14518 -3.27723,0.94528 -4.25663,1.778 -2.38879,2.031 -10.47403,5.36698 -24.50917,10.11251 -22.5714,7.63178 -49.98952,13.52383 -76.92745,16.53141 -13.77439,1.53789 -67.40599,2.77491 -80.65635,1.86033 z M 436.40532,166.1402 c 2.77792,-0.74024 6.55526,-2.12427 8.3941,-3.07563 4.49102,-2.3235 11.10171,-8.3959 12.87654,-11.82803 1.33681,-2.5851 1.2887,-2.83691 -0.66026,-3.45548 -1.53309,-0.48658 -2.54921,-0.0258 -3.75365,1.70222 -11.27603,16.17761 -38.30516,18.04344 -71.33138,4.92402 -4.23628,-1.68283 -7.90179,-3.05969 -8.14557,-3.05969 -0.24378,0 -0.9242,0.8987 -1.51204,1.99709 -1.21434,2.269 -0.37214,2.73597 13.68467,7.58774 18.02547,6.22155 38.65225,8.35088 50.44759,5.20776 z m -10.69849,-17.71653 c 21.62899,-6.7317 35.2851,-28.29318 31.46353,-49.677423 -3.94166,-22.05619 -22.55059,-37.302211 -45.53019,-37.302211 -13.88392,0 -24.77525,4.640227 -34.14506,14.547423 -19.1336,20.230962 -14.87744,52.012081 9.01912,67.346451 10.80976,6.93661 26.64403,8.99131 39.1926,5.08576 z M 316.90506,135.05953 c 7.40109,-1.57035 13.67085,-4.94183 18.75005,-10.08261 8.43901,-8.54132 11.70503,-19.78814 8.96763,-30.880862 -2.94623,-11.938915 -8.81523,-18.874975 -20.61158,-24.359 -4.83481,-2.247666 -7.21475,-2.695235 -14.37999,-2.704276 -7.53855,-0.0095 -9.40614,0.376252 -15.30507,3.161373 -8.2506,3.895445 -14.36168,9.83959 -17.85204,17.364383 -3.86362,8.329501 -3.81842,19.574202 0.1109,27.588902 4.93493,10.06584 13.4479,16.89593 24.45992,19.62456 6.53886,1.62024 9.33977,1.67102 15.86018,0.28753 z"
         style="opacity:1;fill:#93ac93;stroke:#000000;stroke-width:3.81789947;stroke-miterlimit:4;stroke-dasharray:none;stroke-opacity:1" />
      <path
         transform="matrix(0.26458333,0,0,0.26458333,0,159.94582)"
         inkscape:connector-curvature="0"
         id="path4767"
         d="m 349.5322,512.27969 c -56.00975,-2.96197 -125.76997,-16.5637 -179.03439,-34.90783 -9.57617,-3.298 -9.90441,-3.51344 -11.24377,-7.37946 -4.94428,-14.27148 10.58726,-55.61723 38.30396,-101.96707 13.72325,-22.94899 47.84664,-74.42012 53.41348,-80.56796 0.38144,-0.42124 7.03103,-0.0892 14.77686,0.73779 78.09526,8.33834 148.54794,0.8389 206.01232,-21.92928 l 10.10152,-4.00236 6.45959,6.91896 c 52.62207,56.36433 83.74569,107.53102 93.08549,153.03092 2.48575,12.10965 2.83988,32.82218 0.73131,42.77318 l -1.28144,6.04751 -11.98029,5.33142 c -44.08586,19.61885 -95.42279,31.78721 -149.97701,35.54894 -13.9943,0.96497 -54.03992,1.17582 -69.36763,0.36524 z m 219.90117,-67.01526 c 2.88507,-2.88509 3.04396,-3.44608 2.66438,-9.40727 -1.00303,-15.75232 -23.23147,-49.25 -64.29766,-96.89488 -6.81707,-7.90914 -8.78381,-9.64067 -9.899,-8.71514 -0.76543,0.63525 -1.3917,1.54522 -1.3917,2.02214 0,0.47693 3.99521,5.53517 8.87823,11.24053 33.77525,39.46321 55.69236,70.68576 60.82584,86.65094 2.63741,8.20234 1.97563,11.40832 -2.72372,13.19501 -8.87499,3.37427 -38.38909,-8.32164 -78.5971,-31.14664 -16.80153,-9.53776 -42.54613,-25.21749 -53.74501,-32.73334 -4.00289,-2.68645 -7.5098,-4.88445 -7.79314,-4.88445 -0.28333,0 -0.98317,0.87449 -1.55519,1.94333 -0.93011,1.73792 0.53419,2.95174 13.85406,11.48422 44.90124,28.76294 83.96318,49.59124 106.59078,56.83546 4.56963,1.46298 8.76298,2.80815 9.31857,2.98929 0.55558,0.18113 4.11346,0.36522 7.90638,0.40908 6.3844,0.0738 7.12395,-0.14796 9.96428,-2.98828 z"
         style="opacity:1;fill:#93ac93;stroke:#000000;stroke-width:3.81789947;stroke-miterlimit:4;stroke-dasharray:none;stroke-opacity:1" />
      <path
         sodipodi:nodetypes="cscsscssc"
         transform="matrix(0.26458333,0,0,0.26458333,0,159.94582)"
         inkscape:connector-curvature="0"
         id="path4769"
         d="m 138.29626,414.81007 c 1.43729,-7.18642 14.48466,-24.90966 35.8705,-48.72565 13.9005,-15.48006 76.76886,-84.0423 77.36122,-83.44995 0.22754,0.22754 -29.27421,37.66394 -36.18094,48.14736 -14.86914,22.56918 -27.21718,43.16272 -37.28885,62.18879 l -7.32299,13.83361 -7.57615,3.56451 c -9.83243,4.62607 -18.74566,7.65914 -22.50776,7.65914 -2.83181,0 -2.96279,-0.17896 -2.35503,-3.21781 z"
         style="opacity:1;fill:#93ac93;stroke:#000000;stroke-width:3.81789947;stroke-miterlimit:4;stroke-dasharray:none;stroke-opacity:1" />
      <path
         sodipodi:nodetypes="ssccss"
         transform="matrix(0.26458333,0,0,0.26458333,0,159.94582)"
         inkscape:connector-curvature="0"
         id="path4771"
         d="m 205.58546,514.9466 c -65.56353,-0.98807 -77.01611,-0.9831 -74.73181,-1.90964 2.24042,-0.90874 96.2732,-6.21244 126.24959,-7.37695 0.83338,-0.0324 8.33376,1.11532 16.66752,2.55044 12.63783,2.17629 57.32805,6.27736 72.2259,7.86075 5.69032,0.60479 -91.53135,-0.38796 -140.4112,-1.1246 z"
         style="opacity:1;fill:#93ac93;stroke:#000000;stroke-width:3.81789947;stroke-miterlimit:4;stroke-dasharray:none;stroke-opacity:1" />
      <path
         sodipodi:nodetypes="csssccscc"
         transform="matrix(0.26458333,0,0,0.26458333,0,159.94582)"
         inkscape:connector-curvature="0"
         id="path4775"
         d="m 472.26573,510.40968 c 7.50039,-1.39166 17.12,-3.35414 21.37693,-4.36108 7.14667,-1.69049 9.1209,-1.73008 25.75889,-0.51663 9.91046,0.72279 25.12277,2.01293 33.80514,2.86698 8.68236,0.85405 16.63731,1.56664 17.67767,1.58353 1.82095,0.0296 9.31915,0.0727 7.4516,1.15669 -1.34154,0.77866 -26.44582,1.23004 -64.57362,1.46337 l -72.55881,1.09502 z"
         style="opacity:1;fill:#93ac93;stroke:#000000;stroke-width:3.81789947;stroke-miterlimit:4;stroke-dasharray:none;stroke-opacity:1" />
      <path
         transform="matrix(0.26458333,0,0,0.26458333,0,159.94582)"
         inkscape:connector-curvature="0"
         id="path4779"
         d="m 430.05009,257.47224 c -9.39176,-1.74703 -34.551,-10.01067 -44.93016,-14.75748 l -7.37564,-3.37318 9.75627,-3.95483 9.75628,-3.95484 7.21581,1.84204 c 10.2524,2.6172 32.24531,10.20967 37.95475,13.10287 5.34415,2.70808 11.1824,7.26957 11.1824,8.73693 0,2.96759 -13.18803,4.2878 -23.55971,2.35849 z"
         style="opacity:1;fill:#ff0000;stroke:#000000;stroke-width:3.81789947;stroke-miterlimit:4;stroke-dasharray:none;stroke-opacity:1" />
      <path
         transform="matrix(0.26458333,0,0,0.26458333,0,159.94582)"
         inkscape:connector-curvature="0"
         id="path4785"
         d="m 301.83389,130.14357 c -7.0189,-1.8925 -13.8898,-6.38591 -17.44037,-11.40561 -4.38957,-6.20584 -5.55526,-9.84213 -5.64492,-17.60891 -0.0635,-5.499387 0.46068,-7.732887 3.01389,-12.842311 5.28706,-10.580353 13.31643,-15.502743 26.3583,-16.158906 7.70281,-0.387544 9.38786,-0.143592 14.18823,2.054089 7.41082,3.392784 12.36563,7.982657 15.35923,14.227967 3.52276,7.34928 4.18607,13.421141 2.20907,20.221771 -3.08317,10.60574 -11.33637,18.476 -22.39576,21.3566 -6.93619,1.80665 -9.43133,1.83141 -15.64767,0.15531 z"
         style="opacity:1;fill:#ffd42a;stroke:#000000;stroke-width:3.81789947;stroke-miterlimit:4;stroke-dasharray:none;stroke-opacity:1" />
      <path
         transform="matrix(0.26458333,0,0,0.26458333,0,159.94582)"
         inkscape:connector-curvature="0"
         id="path4787"
         d="m 398.55664,143.73687 c -7.1079,-2.34023 -11.89395,-5.40811 -17.63913,-11.30673 -14.67453,-15.06645 -13.88497,-40.179328 1.72224,-54.778041 24.48648,-22.904238 63.89598,-10.360598 69.96406,22.268844 3.05587,16.432107 -6.81973,34.319447 -23.17614,41.978157 -8.83193,4.13546 -21.58628,4.89473 -30.87103,1.83777 z"
         style="opacity:1;fill:#ffd42a;stroke:#000000;stroke-width:3.81789947;stroke-miterlimit:4;stroke-dasharray:none;stroke-opacity:1" />
      <path
         inkscape:connector-curvature="0"
         id="path6278"
         d="m 62.808339,273.213 9.888971,6.94901"
         style="fill:none;stroke:#000000;stroke-width:0.26458332px;stroke-linecap:butt;stroke-linejoin:miter;stroke-opacity:1" />
      <path
         inkscape:connector-curvature="0"
         id="path6280"
         d="m 65.213764,279.09293 3.741774,-4.81086"
         style="fill:none;stroke:#000000;stroke-width:0.26458332px;stroke-linecap:butt;stroke-linejoin:miter;stroke-opacity:1" />
    </g>
  </g>
</svg>
